<svg viewBox="0 0 326 73"
          fill="none"
          xmlns="http://www.w3.org/2000/svg">
<path
            d="M26.405 72.575C17.06 72.575 9.08 67.85 9.08 55.88V31.835H0.365V19.655H9.605V5.69L23.78 0.439995V19.655H35.225V31.835H23.78V52.415C23.78 57.035 26.09 59.345 31.025 59.345C32.6 59.345 34.07 59.03 35.225 58.715V71.42C33.86 71.84 30.08 72.575 26.405 72.575ZM44.8801 71V19.655H59.3701V27.11C61.8901 21.44 66.6151 17.975 73.1251 17.975C74.1751 17.975 76.2751 18.185 76.9051 18.29V33.2C75.2251 32.78 73.5451 32.675 71.5501 32.675C65.9851 32.675 60.8401 36.35 59.5801 41.285V71H44.8801ZM107.782 72.575C92.9775 72.575 80.7975 62.705 80.7975 44.96C80.7975 28.79 92.4525 17.975 107.152 17.975C123.427 17.975 132.667 29.315 132.667 45.17C132.667 46.43 132.562 48.635 132.457 49.475H96.1275C96.4425 56.51 102.952 60.395 109.357 60.395C116.287 60.395 122.167 58.505 128.887 54.095V66.8C124.162 69.845 118.072 72.575 107.782 72.575ZM96.4425 39.605H117.862C117.547 34.775 114.187 30.155 107.152 30.155C100.747 30.155 96.7575 34.985 96.4425 39.605ZM201.307 17.975C210.967 17.975 219.682 24.59 219.682 36.77V71H204.982V40.445C204.982 34.88 201.937 31.415 197.002 31.415C193.327 31.415 190.387 33.515 188.287 36.455V36.77V71H173.587V40.445C173.587 34.88 170.647 31.415 165.712 31.415C161.827 31.415 158.887 33.62 156.787 36.77V71H142.087V19.655H156.577V23.75C159.412 20.495 163.717 17.975 170.227 17.975C176.212 17.975 181.777 20.495 185.032 25.325C187.657 22.28 192.802 17.975 201.307 17.975ZM255.974 72.575C239.384 72.575 228.044 60.605 228.044 45.17C228.044 29.84 239.384 17.975 255.974 17.975C272.564 17.975 284.009 29.84 284.009 45.17C284.009 60.605 272.564 72.575 255.974 72.575ZM255.974 58.715C263.114 58.715 268.784 53.675 268.784 45.17C268.784 36.875 263.114 31.73 255.974 31.73C248.939 31.73 243.269 36.875 243.269 45.17C243.269 53.675 248.939 58.715 255.974 58.715ZM293.435 71V19.655H307.925V27.11C310.445 21.44 315.17 17.975 321.68 17.975C322.73 17.975 324.83 18.185 325.46 18.29V33.2C323.78 32.78 322.1 32.675 320.105 32.675C314.54 32.675 309.395 36.35 308.135 41.285V71H293.435Z"
            fill="#1e293b"
          ></path></svg>